<mxfile host="65bd71144e">
    <diagram id="mXLmCkz1jTbr2M0hIUT9" name="Page-1">
        <mxGraphModel dx="440" dy="241" grid="1" gridSize="10" guides="1" tooltips="1" connect="1" arrows="1" fold="1" page="1" pageScale="1" pageWidth="827" pageHeight="1169" math="0" shadow="0">
            <root>
                <mxCell id="0"/>
                <mxCell id="1" parent="0"/>
                <mxCell id="35" value="" style="rounded=1;whiteSpace=wrap;html=1;fontSize=88;fillColor=#000000;strokeColor=none;" parent="1" vertex="1">
                    <mxGeometry x="200" y="80" width="120" height="120" as="geometry"/>
                </mxCell>
                <mxCell id="3" value="&lt;font face=&quot;Tahoma&quot; size=&quot;1&quot; color=&quot;#ffffff&quot; style=&quot;&quot;&gt;&lt;b style=&quot;font-size: 88px;&quot;&gt;5&lt;/b&gt;&lt;/font&gt;" style="text;html=1;strokeColor=none;fillColor=none;align=center;verticalAlign=middle;whiteSpace=wrap;rounded=0;" parent="1" vertex="1">
                    <mxGeometry x="240" y="100" width="70" height="90" as="geometry"/>
                </mxCell>
                <mxCell id="42" value="&lt;font size=&quot;1&quot; color=&quot;#000000&quot;&gt;&lt;b style=&quot;font-size: 62px;&quot;&gt;#&lt;/b&gt;&lt;/font&gt;" style="text;html=1;strokeColor=none;fillColor=none;align=center;verticalAlign=middle;whiteSpace=wrap;rounded=0;labelBackgroundColor=none;fontFamily=Tahoma;fontSize=48;fontColor=#FFFFFF;" vertex="1" parent="1">
                    <mxGeometry x="330" y="140" width="50" height="30" as="geometry"/>
                </mxCell>
            </root>
        </mxGraphModel>
    </diagram>
</mxfile>